<svg version="1.1" id="Layer_1" xmlns="http://www.w3.org/2000/svg" xmlns:xlink="http://www.w3.org/1999/xlink" x="0px" y="0px"
	 width="100%" viewBox="0 0 340 500" enable-background="new 0 0 340 500" xml:space="preserve">
<path fill="#000000" opacity="1.000000" stroke="none" 
	d="
M200.000000,501.000000 
	C133.333344,501.000000 67.166679,501.000000 1.000018,501.000000 
	C1.000012,334.333374 1.000012,167.666718 1.000006,1.000062 
	C114.333290,1.000042 227.666580,1.000042 340.999908,1.000021 
	C340.999939,167.666611 340.999939,334.333221 340.999969,500.999908 
	C294.166656,501.000000 247.333328,501.000000 200.000000,501.000000 
M108.500000,101.000000 
	C99.401802,101.000000 90.303604,101.000000 81.284714,101.000000 
	C81.284714,187.976624 81.284714,274.376678 81.284714,360.716309 
	C141.304901,360.716309 201.039948,360.716309 260.717316,360.716309 
	C260.717316,300.697113 260.717316,240.962082 260.717316,181.000000 
	C247.293350,181.000000 234.151001,181.000000 221.008667,181.000000 
	C207.744446,181.000000 194.480225,181.000000 181.000000,181.000000 
	C181.000000,167.288864 181.000000,154.145935 181.000000,141.002991 
	C181.000000,127.739281 181.000000,114.475563 181.000000,101.000000 
	C156.784836,101.000000 133.142426,101.000000 108.500000,101.000000 
M260.999756,158.319534 
	C260.999756,145.906067 260.999756,133.492599 260.999756,120.692474 
	C253.887863,120.692474 247.474548,120.692474 240.686005,120.692474 
	C240.686005,113.881126 240.686005,107.467667 240.686005,101.358978 
	C227.211151,101.358978 214.137527,101.358978 201.359802,101.358978 
	C201.359802,121.457146 201.359802,141.195526 201.359802,160.999908 
	C220.380783,160.999908 239.042175,161.028915 257.702881,160.926651 
	C258.803558,160.920639 259.898468,159.857590 260.999756,158.319534 
z"/>
<path fill="#FFFFFF" opacity="1.000000" stroke="none" 
	d="
M109.000000,101.000000 
	C133.142426,101.000000 156.784836,101.000000 181.000000,101.000000 
	C181.000000,114.475563 181.000000,127.739281 181.000000,141.002991 
	C181.000000,154.145935 181.000000,167.288864 181.000000,181.000000 
	C194.480225,181.000000 207.744446,181.000000 221.008667,181.000000 
	C234.151001,181.000000 247.293350,181.000000 260.717316,181.000000 
	C260.717316,240.962082 260.717316,300.697113 260.717316,360.716309 
	C201.039948,360.716309 141.304901,360.716309 81.284714,360.716309 
	C81.284714,274.376678 81.284714,187.976624 81.284714,101.000000 
	C90.303604,101.000000 99.401802,101.000000 109.000000,101.000000 
M201.004517,281.871155 
	C201.004517,288.129730 201.004517,294.388306 201.004517,300.632874 
	C207.941528,300.632874 214.446335,300.632874 220.657776,300.632874 
	C220.657776,293.871521 220.657776,287.479218 220.657776,281.068390 
	C213.850708,281.068390 207.385635,281.068390 200.994370,280.125336 
	C200.994370,273.857849 200.994370,267.590332 200.994370,261.364441 
	C180.711884,261.364441 160.885666,261.364441 141.353790,261.364441 
	C141.353790,268.133087 141.353790,274.534973 141.353790,280.926514 
	C161.492615,280.926514 181.277664,280.926514 201.004517,281.871155 
M141.000000,182.499512 
	C141.000000,175.401978 141.000000,168.304428 141.000000,161.287445 
	C134.020035,161.287445 127.615082,161.287445 121.285957,161.287445 
	C121.285957,174.645798 121.285957,187.714798 121.285957,200.712494 
	C127.980080,200.712494 134.385040,200.712494 141.000000,200.712494 
	C141.000000,194.784027 141.000000,189.141418 141.000000,182.499512 
M126.836197,281.303986 
	C124.949959,281.205170 123.063721,281.106354 121.315224,281.014771 
	C121.315224,288.030701 121.315224,294.441162 121.315224,300.683594 
	C128.045670,300.683594 134.456909,300.683594 140.999557,300.683594 
	C140.999557,297.046814 141.275497,293.695343 140.914261,290.413971 
	C140.612808,287.675903 140.241272,283.280975 138.708435,282.684601 
	C135.369293,281.385498 131.270142,282.039917 126.836197,281.303986 
z"/>
<path fill="#FFFFFF" opacity="1.000000" stroke="none" 
	d="
M260.997925,158.802979 
	C259.898468,159.857590 258.803558,160.920639 257.702881,160.926651 
	C239.042175,161.028915 220.380783,160.999908 201.359802,160.999908 
	C201.359802,141.195526 201.359802,121.457146 201.359802,101.358978 
	C214.137527,101.358978 227.211151,101.358978 240.686005,101.358978 
	C240.686005,107.467667 240.686005,113.881126 240.686005,120.692474 
	C247.474548,120.692474 253.887863,120.692474 260.999756,120.692474 
	C260.999756,133.492599 260.999756,145.906067 260.997925,158.802979 
z"/>
<path fill="#000000" opacity="1.000000" stroke="none" 
	d="
M201.062698,280.926514 
	C181.277664,280.926514 161.492615,280.926514 141.353790,280.926514 
	C141.353790,274.534973 141.353790,268.133087 141.353790,261.364441 
	C160.885666,261.364441 180.711884,261.364441 200.994370,261.364441 
	C200.994370,267.590332 200.994370,273.857849 200.994141,280.562531 
	C200.993896,280.999725 201.062698,280.926514 201.062698,280.926514 
z"/>
<path fill="#000000" opacity="1.000000" stroke="none" 
	d="
M141.000000,182.999161 
	C141.000000,189.141418 141.000000,194.784027 141.000000,200.712494 
	C134.385040,200.712494 127.980080,200.712494 121.285957,200.712494 
	C121.285957,187.714798 121.285957,174.645798 121.285957,161.287445 
	C127.615082,161.287445 134.020035,161.287445 141.000000,161.287445 
	C141.000000,168.304428 141.000000,175.401978 141.000000,182.999161 
z"/>
<path fill="#000000" opacity="1.000000" stroke="none" 
	d="
M200.957214,281.034058 
	C207.385635,281.068390 213.850708,281.068390 220.657776,281.068390 
	C220.657776,287.479218 220.657776,293.871521 220.657776,300.632874 
	C214.446335,300.632874 207.941528,300.632874 201.004517,300.632874 
	C201.004517,294.388306 201.004517,288.129730 201.033600,281.398834 
	C201.062698,280.926514 200.993896,280.999725 200.957214,281.034058 
z"/>
<path fill="#000000" opacity="1.000000" stroke="none" 
	d="
M127.158890,281.599976 
	C131.270142,282.039917 135.369293,281.385498 138.708435,282.684601 
	C140.241272,283.280975 140.612808,287.675903 140.914261,290.413971 
	C141.275497,293.695343 140.999557,297.046814 140.999557,300.683594 
	C134.456909,300.683594 128.045670,300.683594 121.315224,300.683594 
	C121.315224,294.441162 121.315224,288.030701 121.315224,281.014771 
	C123.063721,281.106354 124.949959,281.205170 127.158890,281.599976 
z"/>
</svg>